<svg width="62" height="62" viewBox="0 0 62 62" fill="none" xmlns="http://www.w3.org/2000/svg">
<g id="Icon" opacity="0.4">
<path id="Star 3" d="M30.7175 1.78985C30.8124 1.52455 31.1876 1.52455 31.2825 1.78985L37.0572 17.9366C37.1124 18.0911 37.2815 18.1726 37.4368 18.1194L53.6613 12.5669C53.9279 12.4757 54.1618 12.769 54.0135 13.0086L44.9899 27.5908C44.9036 27.7303 44.9454 27.9133 45.0837 28.0016L59.5407 37.2245C59.7782 37.376 59.6947 37.7418 59.4149 37.7753L42.388 39.8122C42.2251 39.8317 42.108 39.9784 42.1253 40.1416L43.9283 57.1949C43.9579 57.4751 43.6199 57.6379 43.4193 57.44L31.2107 45.3978C31.0939 45.2826 30.9061 45.2826 30.7893 45.3978L18.5807 57.44C18.3801 57.6379 18.0421 57.4751 18.0717 57.1949L19.8747 40.1416C19.892 39.9784 19.7749 39.8317 19.612 39.8122L2.58506 37.7753C2.3053 37.7418 2.22181 37.376 2.45935 37.2245L16.9163 28.0016C17.0546 27.9133 17.0964 27.7303 17.0101 27.5908L7.98646 13.0086C7.8382 12.769 8.07213 12.4757 8.3387 12.5669L24.5632 18.1194C24.7185 18.1726 24.8876 18.0911 24.9428 17.9366L30.7175 1.78985Z" stroke="#E3A97D"/>
<path id="Vector" d="M51 31.0003C51 27.7265 50.1974 24.5355 48.701 21.6904M11 31.0003C11 27.7265 11.8026 24.5355 13.299 21.6904M18.1929 15.6386C20.7721 13.4882 23.8435 12.0288 27.1164 11.3809M34.8836 11.3809C38.1565 12.0288 41.2279 13.4882 43.8071 15.6386M49.1812 39.3336C48.1916 41.4927 46.8244 43.4602 45.1421 45.1424C44.6285 45.656 44.0882 46.1403 43.5241 46.5935M19.0348 47.0263C18.2665 46.4527 17.5388 45.8234 16.8579 45.1424C15.2613 43.5458 13.9485 41.6924 12.973 39.662M26 50.3652C27.6296 50.7859 29.3095 51.0003 31 51.0003C32.5214 51.0003 34.0342 50.8267 35.5095 50.4852" stroke="#E3A97D" stroke-linecap="round" stroke-linejoin="round"/>
<circle id="Ellipse 1" cx="31" cy="31" r="30" stroke="#E3A97D"/>
</g>
</svg>
