<svg width="343" height="584" viewBox="0 0 343 584" fill="none" xmlns="http://www.w3.org/2000/svg">
<line x1="4.5" y1="233.593" x2="4.50001" y2="69.5928" stroke="#E3A97D" stroke-dasharray="1 6"/>
<line x1="4.5" y1="490" x2="4.5" y2="423" stroke="#E3A97D" stroke-dasharray="1 6"/>
<line x1="338.5" y1="490" x2="338.5" y2="241" stroke="#E3A97D" stroke-dasharray="1 6"/>
<line x1="186" y1="577.5" x2="286" y2="577.5" stroke="#E3A97D" stroke-dasharray="1 6"/>
<line x1="56" y1="577.5" x2="156" y2="577.5" stroke="#E3A97D" stroke-dasharray="1 6"/>
<line x1="59" y1="1.09277" x2="285" y2="1.09277" stroke="#E3A97D" stroke-dasharray="1 6"/>
<line x1="4.5" y1="558" x2="4.5" y2="517" stroke="#E3A97D"/>
<line x1="50" y1="577.5" x2="25" y2="577.5" stroke="#E3A97D"/>
<path d="M4.52246 557.5C16.0614 557.5 24.9776 566.09 25.5 577.5" stroke="#E3A97D"/>
<line x1="338.5" y1="20.5928" x2="338.5" y2="50.5928" stroke="#E3A97D"/>
<line x1="293" y1="1.09277" x2="318" y2="1.09277" stroke="#E3A97D"/>
<path d="M338.5 21.0928C326.961 21.0928 318.022 12.5027 317.5 1.09277" stroke="#E3A97D"/>
<line x1="4.5" y1="282.593" x2="4.5" y2="261.593" stroke="#E3A97D"/>
<line x1="4.5" y1="398.593" x2="4.5" y2="377.593" stroke="#E3A97D"/>
<path d="M4.5 368.593L4.5 341.593M4.5 291.593L4.5 338.593M4.5 341.593L1 338.093M4.5 341.593L8 338.093M4.5 341.593L4.5 338.593M1 335.093L4.5 338.593M4.5 338.593L8 335.093" stroke="#E3A97D"/>
<rect x="3" y="241.593" width="3" height="3" rx="1.5" fill="#E3A97D"/>
<rect x="3" y="415.593" width="3" height="3" rx="1.5" fill="#E3A97D"/>
<rect x="3" y="255.593" width="3" height="3" rx="1.5" fill="#E3A97D"/>
<rect x="3" y="401.593" width="3" height="3" rx="1.5" fill="#E3A97D"/>
<rect x="0.5" y="253.093" width="8" height="8" rx="4" stroke="#E3A97D"/>
<rect x="0.5" y="399.093" width="8" height="8" rx="4" stroke="#E3A97D"/>
<rect x="0.5" y="283.093" width="8" height="8" rx="4" stroke="#E3A97D"/>
<rect x="0.5" y="369.093" width="8" height="8" rx="4" stroke="#E3A97D"/>
<line y1="-0.5" x2="21" y2="-0.5" transform="matrix(4.37114e-08 1 1 -4.37114e-08 339 193.593)" stroke="#E3A97D"/>
<line y1="-0.5" x2="21" y2="-0.5" transform="matrix(4.37114e-08 1 1 -4.37114e-08 339 77.5928)" stroke="#E3A97D"/>
<path d="M338.5 107.593L338.5 134.593M338.5 184.593L338.5 137.593M338.5 134.593L335 138.093M338.5 134.593L342 138.093M338.5 134.593L338.5 137.593M335 141.093L338.5 137.593M338.5 137.593L342 141.093" stroke="#E3A97D"/>
<rect width="3" height="3" rx="1.5" transform="matrix(1 0 0 -1 337 234.593)" fill="#E3A97D"/>
<rect width="3" height="3" rx="1.5" transform="matrix(1 0 0 -1 337 60.5928)" fill="#E3A97D"/>
<rect width="3" height="3" rx="1.5" transform="matrix(1 0 0 -1 337 220.593)" fill="#E3A97D"/>
<rect width="3" height="3" rx="1.5" transform="matrix(1 0 0 -1 337 74.5928)" fill="#E3A97D"/>
<rect x="0.5" y="-0.5" width="8" height="8" rx="4" transform="matrix(1 0 0 -1 334 222.593)" stroke="#E3A97D"/>
<rect x="0.5" y="-0.5" width="8" height="8" rx="4" transform="matrix(1 0 0 -1 334 76.5928)" stroke="#E3A97D"/>
<rect x="0.5" y="-0.5" width="8" height="8" rx="4" transform="matrix(1 0 0 -1 334 192.593)" stroke="#E3A97D"/>
<rect x="0.5" y="-0.5" width="8" height="8" rx="4" transform="matrix(1 0 0 -1 334 106.593)" stroke="#E3A97D"/>
<line x1="4.5" y1="60.5928" x2="4.5" y2="15.5928" stroke="#E3A97D"/>
<line x1="50" y1="1.09277" x2="20" y2="1.09277" stroke="#E3A97D"/>
<path d="M4.5 16.0928C13.3531 16.0928 20.0955 9.84588 20.5 1.09277" stroke="#E3A97D"/>
<path d="M4.5 21.5928C16.0389 21.5928 25.4548 12.5027 25.9772 1.09277" stroke="#E3A97D"/>
<path d="M4.5 27.5928C19.3531 27.5928 31.4558 15.8174 31.9822 1.09277" stroke="#E3A97D" stroke-dasharray="1 4"/>
<line x1="338.5" y1="518" x2="338.5" y2="563" stroke="#E3A97D"/>
<line x1="293" y1="577.5" x2="323" y2="577.5" stroke="#E3A97D"/>
<path d="M338.5 562.5C329.647 562.5 322.904 569.247 322.5 578" stroke="#E3A97D"/>
<path d="M338.5 557C326.961 557 317.545 566.09 317.023 577.5" stroke="#E3A97D"/>
<path d="M338.5 551C323.647 551 311.544 562.775 311.018 577.5" stroke="#E3A97D" stroke-dasharray="1 4"/>
<path d="M170.661 573.096C171.518 572.741 172.482 572.741 173.339 573.096L174.521 573.585C175.378 573.94 176.06 574.622 176.415 575.479L176.904 576.661C177.259 577.518 177.259 578.482 176.904 579.339L176.415 580.521C176.06 581.378 175.378 582.06 174.521 582.415L173.339 582.904C172.482 583.259 171.518 583.259 170.661 582.904L169.479 582.415C168.622 582.06 167.94 581.378 167.585 580.521L167.096 579.339C166.741 578.482 166.741 577.518 167.096 576.661L167.585 575.479C167.94 574.622 168.622 573.94 169.479 573.585L170.661 573.096Z" stroke="#E3A97D"/>
</svg>
