<svg width="194" height="194" viewBox="0 0 194 194" fill="none" xmlns="http://www.w3.org/2000/svg">
<path d="M184.755 86.1647C180.059 47.0426 149.894 15.7178 111.255 9.12515M106.791 185.21C128.343 182.642 147.537 172.427 161.563 157.365" stroke="#E3A97D" stroke-linecap="round"/>
<path d="M94.2229 192.544L92.1259 192.43L90.6288 187.522L88.5911 192.239L86.4942 192.126L89.2719 185.947L87.4368 180.62L82.3969 191.964L79.9405 191.831L86.5187 177.966L88.4559 178.071L90.7686 184.565L93.7881 178.359L95.7452 178.465L100.77 192.958L98.3336 192.826L94.5264 181.003L92.1277 186.101L94.2229 192.544Z" fill="#E3A97D"/>
<path d="M65.7062 187.919L69.3162 174.186L71.502 174.761L69.9105 180.815L76.8353 182.635L78.4267 176.581L80.5931 177.15L76.9831 190.884L74.8167 190.314L76.3268 184.569L69.4021 182.749L67.892 188.494L65.7062 187.919Z" fill="#E3A97D"/>
<path d="M57.8207 184.732L55.8807 183.878L56.5556 168.657L58.7152 169.609L58.5313 173.746L63.546 175.956L66.4569 173.021L68.6348 173.98L57.8207 184.732ZM58.2646 175.443L57.8427 182.054L62.5106 177.314L58.2646 175.443Z" fill="#E3A97D"/>
<path d="M41.1583 173.276L45.1683 175.765L51.6142 165.384L53.5342 166.576L47.0883 176.958L51.1152 179.458L50.0707 181.14L40.1139 174.958L41.1583 173.276Z" fill="#E3A97D"/>
<path d="M30.0188 166.414L28.5502 164.913L30.7645 160.284L26.0745 162.382L24.6058 160.881L30.8296 158.205L33.0781 153.039L21.6956 157.993L19.9751 156.234L34.1952 150.463L35.5519 151.85L32.8663 158.199L39.2865 155.667L40.6572 157.068L34.5637 171.145L32.8573 169.4L38.0435 158.114L32.8298 160.25L30.0188 166.414Z" fill="#E3A97D"/>
<path d="M30.3438 145.486L18.8301 153.797L17.519 151.981L29.0327 143.67L30.3438 145.486Z" fill="#E3A97D"/>
<path d="M27.237 141.207L14.9319 148.294L13.8139 146.353L24.4033 140.254L20.6003 133.651L22.3161 132.663L27.237 141.207Z" fill="#E3A97D"/>
<path d="M21.9334 131.695L8.79396 137.079L7.94455 135.007L19.2519 130.373L16.3624 123.322L18.1945 122.571L21.9334 131.695Z" fill="#E3A97D"/>
<path d="M2.47228 118.651L8.67281 113.478L0.995892 110.911L0.534988 108.494L10.4865 111.992L15.4765 111.04L15.8962 113.24L10.8669 114.2L2.93319 121.068L2.47228 118.651Z" fill="#E3A97D"/>
<path d="M14.3985 99.5846C14.4262 100.611 14.2514 101.543 13.8738 102.38C13.4963 103.217 12.9758 103.945 12.3122 104.563C11.6354 105.181 10.8749 105.669 10.0309 106.025C9.1732 106.368 8.29118 106.552 7.38484 106.577C6.43852 106.602 5.53417 106.453 4.67178 106.13C3.79606 105.807 3.01671 105.347 2.33372 104.752C1.6374 104.158 1.08481 103.452 0.675948 102.636C0.253402 101.808 0.0289821 100.907 0.00268775 99.9336C-0.0246872 98.9206 0.157051 97.9954 0.547901 97.1579C0.938391 96.307 1.47225 95.579 2.14948 94.9738C2.82635 94.3553 3.58698 93.8746 4.43136 93.5316C5.27537 93.1754 6.14389 92.9852 7.03689 92.961C7.98321 92.9355 8.89423 93.0842 9.76995 93.4074C10.632 93.7175 11.4111 94.17 12.1075 94.7647C12.7905 95.3598 13.3366 96.072 13.7458 96.9012C14.1546 97.7171 14.3722 98.6116 14.3985 99.5846ZM7.32325 104.297C7.98967 104.279 8.63322 104.155 9.25389 103.925C9.87457 103.695 10.4263 103.38 10.909 102.98C11.378 102.567 11.7449 102.077 12.0097 101.51C12.2744 100.942 12.3974 100.312 12.3787 99.6191C12.3593 98.8994 12.1954 98.2636 11.887 97.7117C11.5786 97.1599 11.1729 96.704 10.6696 96.3441C10.1527 95.9713 9.58496 95.6932 8.96645 95.5098C8.33461 95.3268 7.70547 95.2438 7.07903 95.2607C6.41261 95.2787 5.77573 95.4026 5.16838 95.6325C4.54734 95.8493 4.00232 96.1642 3.5333 96.577C3.05095 96.9902 2.67739 97.4804 2.41262 98.0478C2.14749 98.6018 2.02411 99.2187 2.04248 99.8985C2.06193 100.618 2.22584 101.254 2.53419 101.806C2.84255 102.358 3.24852 102.82 3.75212 103.193C4.25572 103.567 4.81696 103.852 5.43583 104.048C6.05434 104.232 6.68348 104.315 7.32325 104.297Z" fill="#E3A97D"/>
<path d="M15.2432 84.7575C15.0694 85.8774 14.7311 86.7964 14.2283 87.5145C13.7276 88.2193 13.111 88.7578 12.3786 89.1298C11.6482 89.4887 10.844 89.7146 9.96602 89.8077C9.09006 89.8876 8.19752 89.857 7.28841 89.7159L0.173646 88.6113L0.517289 86.3978L7.63206 87.5024C8.27766 87.6026 8.91372 87.6339 9.54025 87.5962C10.1536 87.5565 10.7199 87.4286 11.2393 87.2123C11.7586 86.9961 12.1944 86.6657 12.5468 86.2212C12.9012 85.7635 13.1347 85.1723 13.2472 84.4476C13.3617 83.7098 13.3185 83.0757 13.1175 82.5452C12.9053 81.9995 12.5836 81.5516 12.1522 81.2012C11.7097 80.8357 11.2023 80.541 10.6298 80.3172C10.0574 80.0934 9.45496 79.9324 8.82254 79.8342L1.70777 78.7297L2.05448 76.4964L9.16925 77.601C10.1311 77.7503 11.0218 78.01 11.8413 78.3801C12.6498 78.735 13.339 79.2063 13.9089 79.7941C14.4677 80.3666 14.8722 81.0636 15.1225 81.885C15.3728 82.7065 15.413 83.664 15.2432 84.7575Z" fill="#E3A97D"/>
<path d="M16.7685 75.9445L3.31248 71.4086L5.28654 65.5524C5.49098 64.9459 5.80472 64.4326 6.22778 64.0123C6.65084 63.5921 7.1326 63.2691 7.67306 63.0432C8.21778 62.8047 8.78322 62.6717 9.3694 62.6442C9.95983 62.604 10.5267 62.6755 11.07 62.8586C11.6638 63.0588 12.1962 63.3579 12.6671 63.7558C13.138 64.1537 13.5011 64.6209 13.7565 65.1572C14.0162 65.6809 14.145 66.2379 14.143 66.8282L20.327 65.3881L19.522 67.7761L13.857 69.1167L12.8029 72.2439L17.4841 73.8218L16.7685 75.9445ZM10.9266 71.6114L12.1788 67.8968C12.3108 67.5051 12.3142 67.1193 12.189 66.7394C12.0638 66.3595 11.8415 66.0172 11.522 65.7125C11.19 65.4036 10.7965 65.1725 10.3417 65.0192C9.8742 64.8616 9.42318 64.8221 8.98863 64.9008C8.54144 64.9752 8.14876 65.1383 7.8106 65.3901C7.4767 65.6293 7.24586 65.9385 7.11809 66.3175L5.90426 69.9184L10.9266 71.6114Z" fill="#E3A97D"/>
<path d="M17.6065 44.7624L15.2358 48.8439L25.8026 54.9816L24.6675 56.9358L14.1007 50.7981L11.72 54.8969L10.0078 53.9024L15.8944 43.768L17.6065 44.7624Z" fill="#E3A97D"/>
<path d="M33.2069 41.3491L34.7601 42.5771L28.7192 50.2174L17.5803 41.4104L23.5096 33.9112L25.0627 35.1392L20.5228 40.8813L23.6919 43.3869L27.624 38.4137L29.0831 39.5673L25.1509 44.5406L28.5553 47.2323L33.2069 41.3491Z" fill="#E3A97D"/>
<path d="M29.4843 27.798L31.0263 26.3431L44.7862 32.8835L43.0697 34.503L39.3297 32.7248L35.3437 36.4855L36.9162 40.3088L35.1851 41.942L29.4843 27.798ZM37.8704 31.8193L31.9435 28.8598L34.4955 35.0036L37.8704 31.8193Z" fill="#E3A97D"/>
<path d="M50.6965 14.4435L46.705 16.9626L53.227 27.2966L51.3158 28.5028L44.7938 18.1688L40.7853 20.6986L39.7286 19.0242L49.6397 12.7691L50.6965 14.4435Z" fill="#E3A97D"/>
<path d="M65.725 18.7921L66.5369 20.598L57.6535 24.592L51.8306 11.6408L60.5499 7.72056L61.3618 9.52643L54.6855 12.5281L56.3422 16.2128L62.1246 13.613L62.8873 15.3094L57.1049 17.9092L58.8846 21.8676L65.725 18.7921Z" fill="#E3A97D"/>
<path d="M68.7964 19.7687L64.8749 6.12097L67.0278 5.50237L70.4025 17.2471L77.7261 15.1428L78.2729 17.0458L68.7964 19.7687Z" fill="#E3A97D"/>
<path d="M79.6757 16.8055L77.6588 2.74948L79.8761 2.43133L81.6118 14.5274L89.1545 13.4452L89.4357 15.4051L79.6757 16.8055Z" fill="#E3A97D"/>
<path d="M91.0445 11.0095C91.0337 10.543 91.0771 10.1152 91.1748 9.72613C91.2725 9.3371 91.4376 8.97985 91.6701 8.65438C91.9023 8.31558 92.2221 8.01476 92.6294 7.75192C92.853 7.61337 93.1162 7.46057 93.419 7.29351C93.7216 7.11312 94.0102 6.90638 94.2849 6.67329C94.5596 6.4402 94.7867 6.16821 94.9662 5.8573C95.159 5.54608 95.2507 5.18386 95.2411 4.77064C95.2309 4.33076 95.1158 3.96666 94.8957 3.67835C94.6753 3.3767 94.3968 3.15643 94.0602 3.01752C93.7366 2.86497 93.3815 2.79317 92.9949 2.80213C92.5817 2.8117 92.2038 2.90714 91.8612 3.08846C91.5187 3.26977 91.2239 3.49666 90.9768 3.76912C90.7297 4.04158 90.5229 4.32645 90.3564 4.62372L88.8941 3.67733C89.1214 3.12525 89.4438 2.65099 89.8614 2.25454C90.279 1.8581 90.7587 1.55358 91.3006 1.34097C91.8425 1.12837 92.4134 1.01512 93.0132 1.00122C93.5064 0.989797 93.9948 1.05851 94.4784 1.20735C94.975 1.34255 95.4203 1.56563 95.8142 1.87659C96.2082 2.18755 96.5242 2.58701 96.7622 3.07496C97.0133 3.54928 97.1467 4.12634 97.1624 4.80616C97.1732 5.2727 97.1227 5.68065 97.0107 6.03C96.9118 6.36571 96.7588 6.66934 96.5517 6.94087C96.3446 7.21241 96.1036 7.45806 95.8286 7.67782C95.5533 7.88425 95.2512 8.08463 94.9223 8.27897C94.5937 8.48663 94.2719 8.70081 93.9569 8.92149C93.6416 9.12885 93.3809 9.38829 93.1747 9.69982C92.9685 10.0113 92.8716 10.4337 92.884 10.9669L91.0445 11.0095ZM91.2068 15.4269L91.1484 12.9076L92.9679 12.8655L93.0263 15.3848L91.2068 15.4269Z" fill="#E3A97D"/>
<path d="M47.7807 60.6283H45.4744V58.9686C50.4262 56.5121 54.4962 52.3958 55.5137 47.2173H56.192V58.9686H62.5684V60.6283H56.192C56.192 80.2802 56.192 82.2719 56.192 86.3218C56.192 90.0397 57.82 92.2306 59.7872 92.2306C61.2117 92.2306 62.8397 91.102 64.1964 88.5791L66.367 91.8323C64.4677 93.0937 61.8222 93.8904 59.1089 93.8904C53.6144 93.8904 47.9164 90.6373 47.8485 81.3425C47.8485 65.6741 47.9164 65.5413 47.7807 60.6283Z" fill="#E3A97D"/>
<path d="M63.0835 78.4876C62.2695 65.6077 71.834 58.9686 80.788 58.9686C87.707 58.9686 94.2868 62.952 95.3043 71.1182C96.9323 83.9981 71.834 75.4336 73.8012 85.6579C74.2082 87.716 77.2607 89.8406 81.195 89.8406C85.6042 89.8406 91.0987 87.1849 95.2365 78.9524C93.812 88.7783 86.079 93.8904 78.4817 93.8904C71.02 93.8904 63.7618 88.9111 63.0835 78.4876ZM79.4313 60.6283C70.1382 63.8151 68.985 80.0146 72.241 83.9981C72.8515 82.0728 74.276 79.6827 80.381 77.8237C95.1008 73.3091 89.1993 60.23 81.602 60.23C80.9237 60.23 80.1775 60.3628 79.4313 60.6283Z" fill="#E3A97D"/>
<path d="M101.636 93.3593C92.8178 91.102 93.6318 78.7532 102.382 76.2967C110.183 74.0394 118.934 71.1846 114.728 63.4168C113.643 61.425 111.743 60.4292 109.708 60.4292C106.317 60.4292 102.654 63.3504 102.789 69.1928C102.789 69.3256 102.789 69.392 102.789 69.5248H97.634C97.634 66.8027 99.9403 62.089 104.689 60.2964C106.859 59.4333 109.369 58.9022 111.947 58.9022C118.052 58.9022 124.157 62.0226 124.089 71.5829C124.021 81.1433 123.886 85.9899 124.021 86.6538C124.225 87.9816 124.903 88.8447 126.26 88.8447C126.802 88.8447 127.481 88.6455 128.295 88.3136C128.363 88.5127 128.498 88.6455 128.43 88.7783C127.616 91.9651 124.7 93.824 121.851 93.824C119.476 93.824 117.17 92.5626 116.085 89.8406C112.897 92.3634 109.437 93.8904 105.638 93.8904C104.35 93.8904 102.993 93.7577 101.636 93.3593ZM115.678 70.919C111.608 77.027 102.247 76.8942 102.925 85.5915C103.196 89.5086 106.317 91.102 109.369 91.102C112.15 91.102 114.999 89.8406 115.678 87.9152C115.61 87.5169 115.678 71.3838 115.678 70.919Z" fill="#E3A97D"/>
<path d="M47.7902 109.894H45.4744V108.235C50.4466 105.778 54.5333 101.662 55.555 96.4833H56.2361V108.235H62.6386V109.894H56.2361C56.2361 129.546 56.2361 131.538 56.2361 135.588C56.2361 139.306 57.8708 141.497 59.846 141.497C61.2764 141.497 62.9111 140.368 64.2733 137.845L66.4529 141.098C64.5457 142.36 61.8894 143.156 59.1649 143.156C53.6478 143.156 47.9264 139.903 47.8583 130.608C47.8583 114.94 47.9264 114.807 47.7902 109.894Z" fill="#E3A97D"/>
<path d="M63.1558 127.754C62.3385 114.874 71.9423 108.235 80.9331 108.235C87.8805 108.235 94.4874 112.218 95.509 120.384C97.1437 133.264 71.9423 124.7 73.9175 134.924C74.3262 136.982 77.3912 139.107 81.3417 139.107C85.769 139.107 91.2861 136.451 95.4409 128.218C94.0106 138.044 86.2458 143.156 78.6173 143.156C71.1249 143.156 63.8369 138.177 63.1558 127.754ZM79.5708 109.894C70.2395 113.081 69.0816 129.281 72.351 133.264C72.964 131.339 74.3943 128.949 80.5244 127.09C95.3047 122.575 89.379 109.496 81.7504 109.496C81.0693 109.496 80.3201 109.629 79.5708 109.894Z" fill="#E3A97D"/>
<path d="M127.273 143.156H113.173C114.672 141.629 116.034 139.239 116.034 136.716V103.056C116.034 102.923 116.034 102.857 115.966 102.724C120.734 101.595 122.505 98.1431 123.05 96.6161H124.48V136.716C124.48 139.239 125.774 141.629 127.273 143.156ZM95.6006 143.156C97.099 141.629 98.4613 139.239 98.4613 136.716V109.164C98.4613 109.031 98.4613 108.898 98.4613 108.766C103.229 107.637 105 104.185 105.545 102.724H106.907V136.716C106.907 139.239 108.201 141.629 109.768 143.156H95.6006Z" fill="#E3A97D"/>
<path d="M127.317 127.754C126.499 114.874 136.103 108.235 145.094 108.235C152.041 108.235 158.648 112.218 159.67 120.384C161.305 133.264 136.103 124.7 138.079 134.924C138.487 136.982 141.552 139.107 145.503 139.107C149.93 139.107 155.447 136.451 159.602 128.218C158.172 138.044 150.407 143.156 142.778 143.156C135.286 143.156 127.998 138.177 127.317 127.754ZM143.732 109.894C134.4 113.081 133.243 129.281 136.512 133.264C137.125 131.339 138.555 128.949 144.685 127.09C159.466 122.575 153.54 109.496 145.911 109.496C145.23 109.496 144.481 109.629 143.732 109.894Z" fill="#E3A97D"/>
<path d="M159.898 113.811C159.83 113.612 159.762 113.479 159.762 113.347C160.579 110.558 163.235 108.5 166.164 108.168H166.777C166.981 108.235 167.186 108.235 167.39 108.235C169.229 108.699 170.591 109.562 171.681 111.089C172.294 112.085 172.635 113.214 172.771 114.343V116.865C175.019 113.745 178.356 108.367 185.167 108.168H185.917C188.573 108.301 191.297 108.898 193.273 110.691L187.551 115.206C186.461 113.214 184.554 112.085 182.375 112.085C177.947 112.085 172.771 116.799 172.771 128.019V136.783C172.839 139.306 174.133 141.696 175.632 143.156H161.464C163.031 141.629 164.325 139.239 164.325 136.716C164.325 129.812 164.325 124.168 164.325 119.455V119.189C164.325 114.807 164.189 114.94 163.916 114.343C163.576 113.679 162.963 113.28 162.009 113.28C161.464 113.28 160.715 113.413 159.898 113.811Z" fill="#E3A97D"/>
<path d="M129.13 99.7388C127.957 99.2707 126.962 98.6375 126.255 98.0436C127.225 98.7551 128.185 99.3148 129.13 99.7388C132.209 100.967 136.513 101.059 140.048 96.3173C146.041 88.2771 146.194 85.1971 156.351 78.4419C156.516 78.3323 156.741 78.5046 156.679 78.6926C156.241 80.0232 155.775 82.3683 156.318 84.5204C157.119 87.7006 156.084 91.4601 152.854 95.306C149.728 99.03 146.138 103.089 137.42 101.989C137.209 101.962 137.183 101.666 137.385 101.597C141.128 100.327 147.667 97.1456 149.366 92.5697C150.795 88.7207 151.244 86.9212 151.316 86.2363C151.332 86.0846 151.224 86.0662 151.158 86.2037C147.816 93.1698 139.291 104.296 129.13 99.7388Z" fill="#4F5547"/>
<path d="M139.705 64.6485C138.877 64.7449 138.101 64.6898 137.505 64.5671C138.291 64.6754 139.023 64.6991 139.705 64.6485C141.876 64.3955 144.402 63.0985 144.965 59.2392C145.911 52.7555 145.059 50.8943 148.712 43.9515C148.804 43.7763 149.087 43.8247 149.128 44.0183C149.324 44.9368 149.79 46.2967 150.703 47.2918C152.166 48.8854 152.745 51.3911 152.078 54.6352C151.443 57.7211 150.651 61.1346 145.501 63.2416C145.304 63.3222 145.137 63.0742 145.279 62.9157C147.054 60.9366 149.629 57.2108 149.195 54.1421C148.845 51.6627 148.559 50.4629 148.382 49.9642C148.33 49.8205 148.237 49.8503 148.243 50.0027C148.462 55.1136 146.973 64.1091 139.705 64.6485Z" fill="#4F5547"/>
<path d="M136.546 67.7912C135.96 67.1989 135.526 66.5537 135.255 66.0081C135.654 66.6942 136.086 67.2856 136.546 67.7912C138.083 69.3461 140.66 70.5364 144.047 68.6024C149.738 65.3534 150.679 63.5355 158.398 62.1362C158.593 62.101 158.729 62.3536 158.602 62.5052C157.999 63.2248 157.215 64.43 156.994 65.7625C156.639 67.8962 155.022 69.8957 152.056 71.3687C149.234 72.77 146.057 74.2491 141.225 71.4905C141.04 71.3849 141.132 71.1 141.345 71.1144C143.997 71.2933 148.518 71.0264 150.669 68.7947C152.406 66.9916 153.175 66.0271 153.458 65.5798C153.54 65.451 153.459 65.3957 153.343 65.4947C149.452 68.8155 141.449 73.1845 136.546 67.7912Z" fill="#4F5547"/>
<path d="M90.347 149.985C90.3266 149.152 90.4524 148.384 90.629 147.801C90.4494 148.574 90.3589 149.301 90.347 149.985C90.4006 152.17 91.4616 154.804 95.2534 155.717C101.624 157.251 103.555 156.573 110.135 160.845C110.301 160.953 110.227 161.23 110.03 161.253C109.098 161.364 107.701 161.704 106.627 162.523C104.906 163.833 102.358 164.181 99.1884 163.22C96.1734 162.306 92.8465 161.206 91.2187 155.885C91.1564 155.682 91.4187 155.537 91.5636 155.693C93.3723 157.642 96.8474 160.546 99.9428 160.395C102.444 160.273 103.665 160.098 104.178 159.966C104.325 159.928 104.304 159.833 104.152 159.825C99.0423 159.576 90.2203 157.272 90.347 149.985Z" fill="#4F5547"/>
<path d="M31.3005 96.2954C32.2034 95.5051 33.1692 94.9366 33.9774 94.5947C32.9559 95.1087 32.0677 95.6787 31.3005 96.2954C28.9303 98.3697 26.9934 101.972 29.478 107.011C33.6873 115.548 36.2262 117.014 37.554 128.497C37.5767 128.694 37.3207 128.816 37.1809 128.676C36.2381 127.731 34.4677 126.342 32.4292 125.875C29.3921 125.179 26.6585 122.678 24.7998 118.284C23.0033 114.037 21.1232 109.256 25.7891 102.374C25.9086 102.198 26.1853 102.309 26.1549 102.52C25.6176 106.247 25.4968 113.114 28.6223 116.515C31.2401 119.364 32.5684 120.526 33.1248 120.893C33.252 120.977 33.3166 120.89 33.2242 120.768C28.7757 114.925 23.0608 102.918 31.3005 96.2954Z" fill="#4F5547"/>
<path d="M131.643 22.4643C131.622 20.7883 131.312 19.2538 130.913 18.0947C131.332 19.6362 131.568 21.0913 131.643 22.4643C131.699 26.8638 129.762 32.2386 122.206 34.3587C109.335 37.9698 105.469 36.6656 92.1216 46.1671C91.9604 46.2818 92.0381 46.5521 92.2359 46.5585C94.0579 46.6179 97.3397 47.1307 99.8436 48.8952C103.401 51.4024 108.552 51.9104 114.854 49.7417C121.005 47.6248 127.803 45.0881 130.55 33.5288C130.599 33.3217 130.332 33.1881 130.197 33.353C126.919 37.3605 119.723 44.1937 113.125 44.1173C107.44 44.0514 105.027 43.727 104.244 43.4867C104.099 43.4419 104.124 43.3256 104.276 43.3138C114.478 42.5205 132.452 37.2741 131.643 22.4643Z" fill="#4F5547"/>
</svg>
